<svg
  xmlns="http://www.w3.org/2000/svg"
  viewBox="0 0 48 48"
  class="h-5 w-5 mr-2"
>
  <path
    fill="#EA4335"
    d="M24 9.5c3.14 0 5.97 1.15 8.2 3.04l6.1-6.1C34.15 3.15 29.4 1 24 1 14.61 1 6.4 6.9 3.05 15.1l7.5 5.8C12.4 13.4 17.7 9.5 24 9.5z"
  />
  <path
    fill="#34A853"
    d="M46.5 24c0-1.6-.15-3.15-.45-4.65H24v9.3h12.7c-.55 2.8-2.15 5.15-4.5 6.75l7.5 5.8C43.6 37.1 46.5 31 46.5 24z"
  />
  <path
    fill="#FBBC05"
    d="M10.55 28.9c-.65-1.9-1-3.9-1-5.9s.35-4 1-5.9l-7.5-5.8C1.35 15.4 0 19.6 0 24s1.35 8.6 3.05 12.8l7.5-5.9z"
  />
  <path
    fill="#4285F4"
    d="M24 47c5.4 0 10.15-1.8 13.5-4.9l-7.5-5.8c-2.1 1.4-4.8 2.2-6 2.2-6.3 0-11.6-3.9-13.5-9.5l-7.5 5.8C6.4 41.1 14.6 47 24 47z"
  />
  <path fill="none" d="M0 0h48v48H0z" />
</svg>